<?xml version="1.0" encoding="utf-8"?>
<!-- Generator: Adobe Illustrator 22.0.1, SVG Export Plug-In . SVG Version: 6.00 Build 0)  -->
<svg version="1.1" id="Слой_1" xmlns="http://www.w3.org/2000/svg" xmlns:xlink="http://www.w3.org/1999/xlink" x="0px" y="0px"
	 viewBox="0 0 64 64" style="enable-background:new 0 0 64 64;" xml:space="preserve">
<style type="text/css">
	.st0{fill:none;stroke:#C9C7DA;stroke-width:7;stroke-miterlimit:10;}
	.st1{fill:none;stroke:#C9C7DA;stroke-width:6;stroke-miterlimit:10;}
</style>
<circle class="st0" cx="32.3" cy="32.3" r="14.3"/>
<rect x="29" y="12.6" class="st1" width="6.7" height="4.3"/>
<polygon class="st1" points="46.2,24.3 41.3,19.7 44.2,16.6 49.1,21.2 "/>
<rect x="46.6" y="33.2" transform="matrix(7.299419e-02 -0.9973 0.9973 7.299419e-02 11.0065 82.2144)" class="st1" width="6.3" height="4"/>
<polygon class="st1" points="37.6,47.8 43,44.7 45,48.2 39.6,51.3 "/>
<polygon class="st1" points="22.5,44.6 28.5,47.6 26.7,51.4 20.6,48.5 "/>
<polygon class="st1" points="15.7,32.2 17.1,37.4 13.4,38.2 12.1,33 "/>
<polygon class="st1" points="21.8,19 17.6,23.5 15,21 19.2,16.5 "/>
</svg>
